<svg xmlns="http://www.w3.org/2000/svg" data-name="Layer 3" viewBox="0 0 64 64" id="support-call"><path fill="#69737a" d="M6 54V25a3 3 0 0 1 3-3h46a3 3 0 0 1 3 3v29"></path><path fill="#007dc8" d="M54 56V26H10v30"></path><path fill="#009be4" d="M12 26h42v26H12z"></path><path fill="#ea8d42" d="M30 30h-5v2h4v2h-3a1 1 0 0 0-1 1v4a1 1 0 0 0 1 1h5v-2h-4v-2h3a1 1 0 0 0 1-1v-4a1 1 0 0 0-1-1zm7 0v4h-2v-4h-2v5a1 1 0 0 0 1 1h3v4h2V30z"></path><path fill="#69737a" d="M62 54a6.009 6.009 0 0 1-6 6H8a6 6 0 0 1-6-6h22l2 2h12l2-2Z"></path><path fill="#90979c" d="M38 56H26l-2-2H2.35A6 6 0 0 0 8 58h48a6 6 0 0 0 5.652-4H40Z"></path><path fill="#a9b0b6" d="M47 37V23A15 15 0 0 0 32 8a15 15 0 0 0-15 15v14l-4-11v-3A19 19 0 0 1 32 4a19 19 0 0 1 19 19v3Z"></path><path fill="#c9cacc" d="M32 7a19 19 0 0 0-19 19l4 11V23a15 15 0 0 1 30 0v14l4-11A19 19 0 0 0 32 7Z"></path><path fill="#69737a" d="M34 48a2 2 0 0 0 2-2 2 2 0 0 0-2-2h-4a2 2 0 0 0-2 2 2 2 0 0 0 2 2h4"></path><path fill="#58b15e" d="M19 37h-3a6 6 0 0 1-6-6 6 6 0 0 1 6-6h3a2 2 0 0 1 2 2v8a2 2 0 0 1-2 2zm26 0h3a6 6 0 0 0 6-6 6 6 0 0 0-6-6h-3a2 2 0 0 0-2 2v8a2 2 0 0 0 2 2z"></path><path fill="#468f43" d="M19 37a2 2 0 0 0 2-2v-8a2 2 0 0 0-2-2h-2v12zm26-12a2 2 0 0 0-2 2v8a2 2 0 0 0 2 2h2V25z"></path><path fill="#90979c" d="M34 44h-4a1.99 1.99 0 0 0-.82.18A1.992 1.992 0 0 0 31 47h4a1.99 1.99 0 0 0 .82-.18A1.992 1.992 0 0 0 34 44Z"></path><path d="M26 40h5v-2h-4v-2h3a1 1 0 0 0 1-1v-4a1 1 0 0 0-1-1h-5v2h4v2h-3a1 1 0 0 0-1 1v4a1 1 0 0 0 1 1zm8-4h3v4h2V30h-2v4h-2v-4h-2v5a1 1 0 0 0 1 1z"></path><path d="M62 53h-3V25a4 4 0 0 0-4-4h-3.1a20 20 0 0 0-39.8 0H9a4 4 0 0 0-4 4v28H2a1 1 0 0 0-1 1 7.008 7.008 0 0 0 7 7h48a7.009 7.009 0 0 0 7-7 1 1 0 0 0-1-1Zm-7-30a2 2 0 0 1 2 2v28h-2V31a6.992 6.992 0 0 0-3-5.736V23Zm-39 3v10a5 5 0 0 1 0-10Zm37 5a5.006 5.006 0 0 1-5 5V26a5.006 5.006 0 0 1 5 5Zm-8 5a1 1 0 0 1-1-1v-8a1 1 0 0 1 1-1h1v10ZM18 23h28v1h-1a2.985 2.985 0 0 0-2.22 1H21.22A2.985 2.985 0 0 0 19 24h-1Zm.16-2a13.981 13.981 0 0 1 27.68 0Zm.84 5a1 1 0 0 1 1 1v8a1 1 0 0 1-1 1h-1V26Zm-3 12h3a3 3 0 0 0 3-3v-8h20v8a3 3 0 0 0 3 3h3v1a8.009 8.009 0 0 1-8 8h-3.171A3 3 0 0 0 34 43h-4a3 3 0 0 0 0 6h10a10.011 10.011 0 0 0 10-10v-1.3a7 7 0 0 0 3-1.816V53H40a1 1 0 0 0-.707.293L37.586 55H26.414l-1.707-1.707A1 1 0 0 0 24 53H11V35.889A6.973 6.973 0 0 0 16 38Zm19 8a1 1 0 0 1-1 1h-4a1 1 0 0 1 0-2h4a1 1 0 0 1 1 1ZM32 5a18.021 18.021 0 0 1 18 18v1.3a6.956 6.956 0 0 0-2-.3v-1a16 16 0 0 0-32 0v1a6.956 6.956 0 0 0-2 .3V23A18.021 18.021 0 0 1 32 5ZM7 25a2 2 0 0 1 2-2h3v2.264A6.992 6.992 0 0 0 9 31v22H7Zm52.53 32.536A4.93 4.93 0 0 1 56 59H8a5.008 5.008 0 0 1-4.9-4h20.486l1.707 1.707A1 1 0 0 0 26 57h12a1 1 0 0 0 .707-.293L40.414 55H60.9a4.928 4.928 0 0 1-1.37 2.536Z"></path></svg>